<svg xmlns="http://www.w3.org/2000/svg" viewBox="0 0 600 800" fill="none" stroke="currentColor" stroke-width="1.2" stroke-linecap="round" stroke-linejoin="round">
  <g opacity="0.95">
    <!-- Clavícula -->
    <path d="M60 220 C 130 200 220 196 290 215 C 305 220 310 232 305 248" />
    <path d="M60 240 C 130 222 220 220 295 240" opacity="0.55" />
    <!-- Acrômio -->
    <path d="M300 220 C 325 222 348 235 360 258 C 365 270 360 285 350 295" />
    <!-- Espinha da escápula / escápula -->
    <path d="M380 280 C 460 280 520 320 540 380 C 555 430 540 480 500 510 L 470 525" />
    <path d="M540 380 L 500 360 M 530 420 L 490 410 M 510 470 L 480 460" opacity="0.45" />
    <!-- Cabeça do úmero (glenoumeral) -->
    <ellipse cx="320" cy="320" rx="55" ry="60" />
    <!-- Glenóide -->
    <path d="M380 290 C 390 320 388 350 380 380" opacity="0.7" />
    <!-- Tuberosidades do úmero -->
    <ellipse cx="296" cy="290" rx="10" ry="14" opacity="0.55" />
    <ellipse cx="346" cy="294" rx="8" ry="12" opacity="0.55" />
    <!-- Manguito rotador (tendões representativos) -->
    <path d="M268 270 C 290 250 320 244 348 248" opacity="0.5" stroke-dasharray="3 4" />
    <path d="M268 372 C 290 388 320 392 348 388" opacity="0.5" stroke-dasharray="3 4" />
    <!-- Cabeça umeral inferior - colo cirúrgico -->
    <path d="M275 374 C 290 392 350 392 365 374" opacity="0.55" />
    <!-- Diáfise umeral -->
    <path d="M280 380 C 270 460 270 560 285 680 L 290 800" />
    <path d="M360 380 C 360 460 366 560 358 680 L 354 800" />
    <!-- Ulna/Rádio insinuados no fim -->
    <path d="M298 800 L 298 720" opacity="0.4" />
    <path d="M350 800 L 350 720" opacity="0.4" />
    <!-- Costela superior insinuada -->
    <path d="M80 360 C 160 380 230 400 280 410" opacity="0.35" />
    <path d="M70 420 C 150 440 220 450 270 455" opacity="0.3" />
    <!-- Cápsula articular -->
    <ellipse cx="320" cy="330" rx="78" ry="78" opacity="0.3" stroke-dasharray="2 4" />
  </g>
</svg>
